<svg xmlns="http://www.w3.org/2000/svg" width="127" height="23" viewBox="0 0 127 23" fill="none">
  <g clip-path="url(#clip0_120_1135)">
    <path d="M69.0948 21.4531H85.4852V19.4482H71.9062V13.0367H82.1044V11.0115H71.9062V5.10376H85.4852V3.10907H69.0948V21.4531ZM77.6103 0.142478L75.3937 2.63584L82.3586 0.142478H77.6103ZM112.994 19.4482V3.10907H110.432V21.4531H127V19.4482H112.994ZM96.1003 3.10907L86.7815 21.4531H89.9335L92.3179 16.7055H103.497L105.902 21.4531H109.018L99.6895 3.10907H96.1003ZM93.4973 14.4055L97.8898 5.64314L102.333 14.4055H93.4973ZM60.198 13.7796C64.3973 12.6602 64.804 9.53075 64.7837 8.41128C64.5346 5.13938 62.3282 3.10907 58.3628 3.10907H46.8122V21.4531H49.4457V13.7542H56.9647L62.4959 21.448H65.8157C65.8208 21.4531 61.8401 16.273 60.198 13.7796ZM58.0069 11.5865H49.4457V5.27677H58.3018C60.3404 5.27677 61.4893 6.22832 61.9011 7.43938C62.1756 8.2688 61.9977 9.35774 61.5452 10.1007C60.8081 11.327 59.4049 11.5865 58.0069 11.5865ZM30.9861 0C23.5535 0 18.4849 5.24624 18.4849 11.5967C18.4849 18.283 24.0823 23 30.9861 23C37.8849 23 43.4823 18.3491 43.4823 11.5967C43.4823 5.24624 38.3527 0 30.9861 0ZM30.8997 20.7204C25.7549 20.7204 21.52 16.5834 21.52 11.6018C21.52 6.62522 25.5566 2.28982 31.098 2.28982C36.5021 2.28982 40.4777 6.62522 40.4777 11.6018C40.4777 16.5834 36.0395 20.7204 30.8997 20.7204ZM11.8505 9.5969H13.7519L17.1987 3.10907H14.4229L11.8505 9.5969ZM2.56227 19.4482V3.10907H0V21.4531H16.5683V19.4482H2.56227Z" fill="#FFFDE2"/>
  </g>
  <defs>
    <clipPath id="clip0_120_1135">
      <rect width="127" height="23" fill="white"/>
    </clipPath>
  </defs>
</svg>
