<svg xmlns="http://www.w3.org/2000/svg" width="14" height="14" viewBox="0 0 14 14" fill="none">
  <path d="M4 4.5L1 7.5L4 10.5" stroke="#FFFDE2" stroke-width="1.5" stroke-linecap="square" stroke-linejoin="round"/>
  <path d="M2 7.5H9" stroke="#FFFDE2" stroke-width="1.5" stroke-linecap="square" stroke-linejoin="round"/>
  <mask id="path-3-inside-1_280_1228" fill="white">
    <path d="M8 13H11.5C11.8978 13 12.2794 12.842 12.5607 12.5607C12.842 12.2794 13 11.8978 13 11.5V3.5C13 3.10218 12.842 2.72064 12.5607 2.43934C12.2794 2.15804 11.8978 2 11.5 2H8"/>
  </mask>
  <path d="M8 14.5H6.5V11.5H8V13V14.5ZM11.5 13V14.5V13ZM13 11.5H14.5H13ZM13 3.5H14.5H13ZM11.5 2V0.5V2ZM8 3.5H6.5V0.5H8V2V3.5ZM8 13V11.5H11.5V13V14.5H8V13ZM11.5 13V11.5V11.5L12.5607 12.5607L13.6213 13.6213C13.0587 14.1839 12.2956 14.5 11.5 14.5V13ZM12.5607 12.5607L11.5 11.5V11.5H13H14.5C14.5 12.2956 14.1839 13.0587 13.6213 13.6213L12.5607 12.5607ZM13 11.5H11.5V3.5H13H14.5V11.5H13ZM13 3.5H11.5V3.5L12.5607 2.43934L13.6213 1.37868C14.1839 1.94129 14.5 2.70435 14.5 3.5H13ZM12.5607 2.43934L11.5 3.5V3.5V2V0.5C12.2956 0.5 13.0587 0.81607 13.6213 1.37868L12.5607 2.43934ZM11.5 2V3.5H8V2V0.5H11.5V2Z" fill="#FFFDE2" mask="url(#path-3-inside-1_280_1228)"/>
</svg>
