<svg xmlns="http://www.w3.org/2000/svg" width="14" height="14" viewBox="0 0 14 14" fill="none">
  <path d="M10.4502 4.61038C10.4133 4.53947 10.3576 4.48004 10.2893 4.43854C10.221 4.39705 10.1426 4.37507 10.0626 4.375H3.93761C3.85759 4.37507 3.77912 4.39708 3.71074 4.43865C3.64236 4.48022 3.58668 4.53974 3.54978 4.61075C3.51288 4.68176 3.49616 4.76153 3.50144 4.84138C3.50672 4.92123 3.53381 4.9981 3.57974 5.06363L6.64224 9.43862C6.68261 9.49604 6.7362 9.54289 6.79849 9.57524C6.86078 9.60758 6.92993 9.62447 7.00011 9.62447C7.0703 9.62447 7.13945 9.60758 7.20174 9.57524C7.26403 9.54289 7.31762 9.49604 7.35799 9.43862L10.4205 5.06363C10.4665 4.99804 10.4935 4.92109 10.4988 4.84116C10.504 4.76124 10.4872 4.68141 10.4502 4.61038Z" fill="#FFFDE2"/>
</svg>
